<svg xmlns="http://www.w3.org/2000/svg" viewBox="0 0 512 512">
<defs><linearGradient id="bg" x1="0" y1="0" x2="1" y2="1">
<stop offset="0" stop-color="#8a3448"/><stop offset="1" stop-color="#4a1a26"/>
</linearGradient></defs>
<rect width="512" height="512" rx="112" fill="url(#bg)"/>
<path d="M148 176 L82 256 L148 336" stroke="#F2C14E" stroke-width="30" stroke-linecap="round" stroke-linejoin="round" fill="none"/>
<path d="M364 176 L430 256 L364 336" stroke="#F2C14E" stroke-width="30" stroke-linecap="round" stroke-linejoin="round" fill="none"/>
<g transform="translate(153.7 361.0) scale(0.2991)"><path d="M622.0 -191.0Q622.0 -103.0 560.5 -51.5Q499.0 0.0 389.0 0.0H62.0V-702.0H378.0Q485.0 -702.0 545.5 -653.0Q606.0 -604.0 606.0 -520.0Q606.0 -458.0 573.5 -417.0Q541.0 -376.0 487.0 -360.0Q548.0 -347.0 585.0 -299.5Q622.0 -252.0 622.0 -191.0ZM233.0 -418.0H345.0Q387.0 -418.0 409.5 -436.5Q432.0 -455.0 432.0 -491.0Q432.0 -527.0 409.5 -546.0Q387.0 -565.0 345.0 -565.0H233.0ZM449.0 -214.0Q449.0 -251.0 424.5 -272.0Q400.0 -293.0 357.0 -293.0H233.0V-138.0H359.0Q402.0 -138.0 425.5 -157.5Q449.0 -177.0 449.0 -214.0Z" fill="#FFF6EC"/></g>
</svg>